<svg viewBox="0 0 512 513.5" height="512" width="513.5" xmlns="http://www.w3.org/2000/svg"><path d="M0 64h288v64h86.5l5 4.5 96 96 4.5 5V400h-50.5c-7.153 27.518-31.849 48-61.5 48s-54.347-20.482-61.5-48h-133c-7.153 27.518-31.849 48-61.5 48s-54.347-20.482-61.5-48H0V64zm32 32v272h18.5c7.153-27.518 31.849-48 61.5-48s54.347 20.482 61.5 48H256V96H32zm256 64v208h18.5c7.153-27.518 31.849-48 61.5-48s54.347 20.482 61.5 48H448V247l-87-87h-73zM112 352c-17.862 0-32 14.138-32 32s14.138 32 32 32 32-14.138 32-32-14.138-32-32-32zm256 0c-17.862 0-32 14.138-32 32s14.138 32 32 32 32-14.138 32-32-14.138-32-32-32z"></path></svg>